<svg width="524" height="289" xmlns="http://www.w3.org/2000/svg" xmlns:xlink="http://www.w3.org/1999/xlink" xml:space="preserve" overflow="hidden"><defs><clipPath id="clip0"><rect x="27" y="521" width="524" height="289"/></clipPath></defs><g clip-path="url(#clip0)" transform="translate(-27 -521)"><rect x="27" y="521" width="523" height="288" fill="#FFFFFF"/><g><path d="M90 683 536 683M90 666 536 666M90 650 536 650M90 634 536 634M90 617 536 617M90 601 536 601M90 585 536 585M90 568 536 568M90 552 536 552M90 536 536 536" stroke="#D9D9D9" stroke-width="2" stroke-linejoin="round" stroke-miterlimit="10" fill="none"/></g><g><path d="M90.5001 698.5 535.5 698.5" stroke="#D9D9D9" stroke-linejoin="round" stroke-miterlimit="10" fill="none" fill-rule="evenodd"/></g><g><path d="M101.5 571.5 123.5 569.5 145.5 555.5 168.5 551.5 190.5 548.5 212.5 544.5 235.5 539.5 257.5 535.5 279.5 538.5 301.5 544.5 324.5 548.5 346.5 553.5 368.5 556.5 391.5 543.5 413.5 539.5 435.5 539.5 457.5 541.5 480.5 544.5 502.5 547.5 524.5 549.5" stroke="#156082" stroke-width="3" stroke-linecap="round" stroke-linejoin="round" stroke-miterlimit="10" fill="none"/></g><g><path d="M104.5 571.5C104.5 573.157 103.157 574.5 101.5 574.5 99.8433 574.5 98.5002 573.157 98.5002 571.5 98.5002 569.843 99.8433 568.5 101.5 568.5 103.157 568.5 104.5 569.843 104.5 571.5Z" stroke="#156082" stroke-linejoin="round" stroke-miterlimit="10" fill="#156082"/><path d="M126.5 569.5C126.5 571.157 125.157 572.5 123.5 572.5 121.843 572.5 120.5 571.157 120.5 569.5 120.5 567.843 121.843 566.5 123.5 566.5 125.157 566.5 126.5 567.843 126.5 569.5Z" stroke="#156082" stroke-linejoin="round" stroke-miterlimit="10" fill="#156082"/><path d="M148.5 555.5C148.5 557.157 147.157 558.5 145.5 558.5 143.843 558.5 142.5 557.157 142.5 555.5 142.5 553.843 143.843 552.5 145.5 552.5 147.157 552.5 148.5 553.843 148.5 555.5Z" stroke="#156082" stroke-linejoin="round" stroke-miterlimit="10" fill="#156082"/><path d="M171.5 551.5C171.5 553.157 170.157 554.5 168.5 554.5 166.843 554.5 165.5 553.157 165.5 551.5 165.5 549.843 166.843 548.5 168.5 548.5 170.157 548.5 171.5 549.843 171.5 551.5Z" stroke="#156082" stroke-linejoin="round" stroke-miterlimit="10" fill="#156082"/><path d="M193.5 548.5C193.5 550.157 192.157 551.5 190.5 551.5 188.843 551.5 187.5 550.157 187.5 548.5 187.5 546.843 188.843 545.5 190.5 545.5 192.157 545.5 193.5 546.843 193.5 548.5Z" stroke="#156082" stroke-linejoin="round" stroke-miterlimit="10" fill="#156082"/><path d="M215.5 544.5C215.5 546.157 214.157 547.5 212.5 547.5 210.843 547.5 209.5 546.157 209.5 544.5 209.5 542.843 210.843 541.5 212.5 541.5 214.157 541.5 215.5 542.843 215.5 544.5Z" stroke="#156082" stroke-linejoin="round" stroke-miterlimit="10" fill="#156082"/><path d="M238.5 539.5C238.5 541.157 237.157 542.5 235.5 542.5 233.843 542.5 232.5 541.157 232.5 539.5 232.5 537.843 233.843 536.5 235.5 536.5 237.157 536.5 238.5 537.843 238.5 539.5Z" stroke="#156082" stroke-linejoin="round" stroke-miterlimit="10" fill="#156082"/><path d="M260.5 535.5C260.5 537.157 259.157 538.5 257.5 538.5 255.843 538.5 254.5 537.157 254.5 535.5 254.5 533.843 255.843 532.5 257.5 532.5 259.157 532.5 260.5 533.843 260.5 535.5Z" stroke="#156082" stroke-linejoin="round" stroke-miterlimit="10" fill="#156082"/><path d="M282.5 538.5C282.5 540.157 281.157 541.5 279.5 541.5 277.843 541.5 276.5 540.157 276.5 538.5 276.5 536.843 277.843 535.5 279.5 535.5 281.157 535.5 282.5 536.843 282.5 538.5Z" stroke="#156082" stroke-linejoin="round" stroke-miterlimit="10" fill="#156082"/><path d="M304.5 544.5C304.5 546.157 303.157 547.5 301.5 547.5 299.843 547.5 298.5 546.157 298.5 544.5 298.5 542.843 299.843 541.5 301.5 541.5 303.157 541.5 304.5 542.843 304.5 544.5Z" stroke="#156082" stroke-linejoin="round" stroke-miterlimit="10" fill="#156082"/><path d="M327.5 548.5C327.5 550.157 326.157 551.5 324.5 551.5 322.843 551.5 321.5 550.157 321.5 548.5 321.5 546.843 322.843 545.5 324.5 545.5 326.157 545.5 327.5 546.843 327.5 548.5Z" stroke="#156082" stroke-linejoin="round" stroke-miterlimit="10" fill="#156082"/><path d="M349.5 553.5C349.5 555.157 348.157 556.5 346.5 556.5 344.843 556.5 343.5 555.157 343.5 553.5 343.5 551.843 344.843 550.5 346.5 550.5 348.157 550.5 349.5 551.843 349.5 553.5Z" stroke="#156082" stroke-linejoin="round" stroke-miterlimit="10" fill="#156082"/><path d="M371.5 556.5C371.5 558.157 370.157 559.5 368.5 559.5 366.843 559.5 365.5 558.157 365.5 556.5 365.5 554.843 366.843 553.5 368.5 553.5 370.157 553.5 371.5 554.843 371.5 556.5Z" stroke="#156082" stroke-linejoin="round" stroke-miterlimit="10" fill="#156082"/><path d="M394.5 543.5C394.5 545.157 393.157 546.5 391.5 546.5 389.843 546.5 388.5 545.157 388.5 543.5 388.5 541.843 389.843 540.5 391.5 540.5 393.157 540.5 394.5 541.843 394.5 543.5Z" stroke="#156082" stroke-linejoin="round" stroke-miterlimit="10" fill="#156082"/><path d="M416.5 539.5C416.5 541.157 415.157 542.5 413.5 542.5 411.843 542.5 410.5 541.157 410.5 539.5 410.5 537.843 411.843 536.5 413.5 536.5 415.157 536.5 416.5 537.843 416.5 539.5Z" stroke="#156082" stroke-linejoin="round" stroke-miterlimit="10" fill="#156082"/><path d="M438.5 539.5C438.5 541.157 437.157 542.5 435.5 542.5 433.843 542.5 432.5 541.157 432.5 539.5 432.5 537.843 433.843 536.5 435.5 536.5 437.157 536.5 438.5 537.843 438.5 539.5Z" stroke="#156082" stroke-linejoin="round" stroke-miterlimit="10" fill="#156082"/><path d="M460.5 541.5C460.5 543.157 459.157 544.5 457.5 544.5 455.843 544.5 454.5 543.157 454.5 541.5 454.5 539.843 455.843 538.5 457.5 538.5 459.157 538.5 460.5 539.843 460.5 541.5Z" stroke="#156082" stroke-linejoin="round" stroke-miterlimit="10" fill="#156082"/><path d="M483.5 544.5C483.5 546.157 482.157 547.5 480.5 547.5 478.843 547.5 477.5 546.157 477.5 544.5 477.5 542.843 478.843 541.5 480.5 541.5 482.157 541.5 483.5 542.843 483.5 544.5Z" stroke="#156082" stroke-linejoin="round" stroke-miterlimit="10" fill="#156082"/><path d="M505.5 547.5C505.5 549.157 504.157 550.5 502.5 550.5 500.843 550.5 499.5 549.157 499.5 547.5 499.5 545.843 500.843 544.5 502.5 544.5 504.157 544.5 505.5 545.843 505.5 547.5Z" stroke="#156082" stroke-linejoin="round" stroke-miterlimit="10" fill="#156082"/><path d="M527.5 549.5C527.5 551.157 526.157 552.5 524.5 552.5 522.843 552.5 521.5 551.157 521.5 549.5 521.5 547.843 522.843 546.5 524.5 546.5 526.157 546.5 527.5 547.843 527.5 549.5Z" stroke="#156082" stroke-linejoin="round" stroke-miterlimit="10" fill="#156082"/></g><g><path d="M101.5 572.5 123.5 563.5 145.5 550.5 168.5 535.5 190.5 539.5 212.5 547.5 235.5 558.5 257.5 568.5 279.5 574.5 301.5 579.5 324.5 573.5 346.5 559.5 368.5 554.5 391.5 546.5 413.5 537.5 435.5 539.5 457.5 542.5 480.5 546.5 502.5 551.5 524.5 557.5" stroke="#E97132" stroke-width="3" stroke-linecap="round" stroke-linejoin="round" stroke-miterlimit="10" fill="none"/></g><g><path d="M104.5 572.5C104.5 574.157 103.157 575.5 101.5 575.5 99.8433 575.5 98.5002 574.157 98.5002 572.5 98.5002 570.843 99.8433 569.5 101.5 569.5 103.157 569.5 104.5 570.843 104.5 572.5Z" stroke="#E97132" stroke-linejoin="round" stroke-miterlimit="10" fill="#E97132"/><path d="M126.5 563.5C126.5 565.157 125.157 566.5 123.5 566.5 121.843 566.5 120.5 565.157 120.5 563.5 120.5 561.843 121.843 560.5 123.5 560.5 125.157 560.5 126.5 561.843 126.5 563.5Z" stroke="#E97132" stroke-linejoin="round" stroke-miterlimit="10" fill="#E97132"/><path d="M148.5 550.5C148.5 552.157 147.157 553.5 145.5 553.5 143.843 553.5 142.5 552.157 142.5 550.5 142.5 548.843 143.843 547.5 145.5 547.5 147.157 547.5 148.5 548.843 148.5 550.5Z" stroke="#E97132" stroke-linejoin="round" stroke-miterlimit="10" fill="#E97132"/><path d="M171.5 535.5C171.5 537.157 170.157 538.5 168.5 538.5 166.843 538.5 165.5 537.157 165.5 535.5 165.5 533.843 166.843 532.5 168.5 532.5 170.157 532.5 171.5 533.843 171.5 535.5Z" stroke="#E97132" stroke-linejoin="round" stroke-miterlimit="10" fill="#E97132"/><path d="M193.5 539.5C193.5 541.157 192.157 542.5 190.5 542.5 188.843 542.5 187.5 541.157 187.5 539.5 187.5 537.843 188.843 536.5 190.5 536.5 192.157 536.5 193.5 537.843 193.5 539.5Z" stroke="#E97132" stroke-linejoin="round" stroke-miterlimit="10" fill="#E97132"/><path d="M215.5 547.5C215.5 549.157 214.157 550.5 212.5 550.5 210.843 550.5 209.5 549.157 209.5 547.5 209.5 545.843 210.843 544.5 212.5 544.5 214.157 544.5 215.5 545.843 215.5 547.5Z" stroke="#E97132" stroke-linejoin="round" stroke-miterlimit="10" fill="#E97132"/><path d="M238.5 558.5C238.5 560.157 237.157 561.5 235.5 561.5 233.843 561.5 232.5 560.157 232.5 558.5 232.5 556.843 233.843 555.5 235.5 555.5 237.157 555.5 238.5 556.843 238.5 558.5Z" stroke="#E97132" stroke-linejoin="round" stroke-miterlimit="10" fill="#E97132"/><path d="M260.5 568.5C260.5 570.157 259.157 571.5 257.5 571.5 255.843 571.5 254.5 570.157 254.5 568.5 254.5 566.843 255.843 565.5 257.5 565.5 259.157 565.5 260.5 566.843 260.5 568.5Z" stroke="#E97132" stroke-linejoin="round" stroke-miterlimit="10" fill="#E97132"/><path d="M282.5 574.5C282.5 576.157 281.157 577.5 279.5 577.5 277.843 577.5 276.5 576.157 276.5 574.5 276.5 572.843 277.843 571.5 279.5 571.5 281.157 571.5 282.5 572.843 282.5 574.5Z" stroke="#E97132" stroke-linejoin="round" stroke-miterlimit="10" fill="#E97132"/><path d="M304.5 579.5C304.5 581.157 303.157 582.5 301.5 582.5 299.843 582.5 298.5 581.157 298.5 579.5 298.5 577.843 299.843 576.5 301.5 576.5 303.157 576.5 304.5 577.843 304.5 579.5Z" stroke="#E97132" stroke-linejoin="round" stroke-miterlimit="10" fill="#E97132"/><path d="M327.5 573.5C327.5 575.157 326.157 576.5 324.5 576.5 322.843 576.5 321.5 575.157 321.5 573.5 321.5 571.843 322.843 570.5 324.5 570.5 326.157 570.5 327.5 571.843 327.5 573.5Z" stroke="#E97132" stroke-linejoin="round" stroke-miterlimit="10" fill="#E97132"/><path d="M349.5 559.5C349.5 561.157 348.157 562.5 346.5 562.5 344.843 562.5 343.5 561.157 343.5 559.5 343.5 557.843 344.843 556.5 346.5 556.5 348.157 556.5 349.5 557.843 349.5 559.5Z" stroke="#E97132" stroke-linejoin="round" stroke-miterlimit="10" fill="#E97132"/><path d="M371.5 554.5C371.5 556.157 370.157 557.5 368.5 557.5 366.843 557.5 365.5 556.157 365.5 554.5 365.5 552.843 366.843 551.5 368.5 551.5 370.157 551.5 371.5 552.843 371.5 554.5Z" stroke="#E97132" stroke-linejoin="round" stroke-miterlimit="10" fill="#E97132"/><path d="M394.5 546.5C394.5 548.157 393.157 549.5 391.5 549.5 389.843 549.5 388.5 548.157 388.5 546.5 388.5 544.843 389.843 543.5 391.5 543.5 393.157 543.5 394.5 544.843 394.5 546.5Z" stroke="#E97132" stroke-linejoin="round" stroke-miterlimit="10" fill="#E97132"/><path d="M416.5 537.5C416.5 539.157 415.157 540.5 413.5 540.5 411.843 540.5 410.5 539.157 410.5 537.5 410.5 535.843 411.843 534.5 413.5 534.5 415.157 534.5 416.5 535.843 416.5 537.5Z" stroke="#E97132" stroke-linejoin="round" stroke-miterlimit="10" fill="#E97132"/><path d="M438.5 539.5C438.5 541.157 437.157 542.5 435.5 542.5 433.843 542.5 432.5 541.157 432.5 539.5 432.5 537.843 433.843 536.5 435.5 536.5 437.157 536.5 438.5 537.843 438.5 539.5Z" stroke="#E97132" stroke-linejoin="round" stroke-miterlimit="10" fill="#E97132"/><path d="M460.5 542.5C460.5 544.157 459.157 545.5 457.5 545.5 455.843 545.5 454.5 544.157 454.5 542.5 454.5 540.843 455.843 539.5 457.5 539.5 459.157 539.5 460.5 540.843 460.5 542.5Z" stroke="#E97132" stroke-linejoin="round" stroke-miterlimit="10" fill="#E97132"/><path d="M483.5 546.5C483.5 548.157 482.157 549.5 480.5 549.5 478.843 549.5 477.5 548.157 477.5 546.5 477.5 544.843 478.843 543.5 480.5 543.5 482.157 543.5 483.5 544.843 483.5 546.5Z" stroke="#E97132" stroke-linejoin="round" stroke-miterlimit="10" fill="#E97132"/><path d="M505.5 551.5C505.5 553.157 504.157 554.5 502.5 554.5 500.843 554.5 499.5 553.157 499.5 551.5 499.5 549.843 500.843 548.5 502.5 548.5 504.157 548.5 505.5 549.843 505.5 551.5Z" stroke="#E97132" stroke-linejoin="round" stroke-miterlimit="10" fill="#E97132"/><path d="M527.5 557.5C527.5 559.157 526.157 560.5 524.5 560.5 522.843 560.5 521.5 559.157 521.5 557.5 521.5 555.843 522.843 554.5 524.5 554.5 526.157 554.5 527.5 555.843 527.5 557.5Z" stroke="#E97132" stroke-linejoin="round" stroke-miterlimit="10" fill="#E97132"/></g><g><path d="M101.5 535.5 123.5 535.5 145.5 535.5 168.5 544.5 190.5 554.5 212.5 561.5 235.5 563.5 257.5 559.5 279.5 548.5 301.5 536.5 324.5 535.5 346.5 535.5 368.5 540.5 391.5 548.5 413.5 555.5 435.5 564.5 457.5 567.5 480.5 564.5 502.5 570.5 524.5 562.5" stroke="#196B24" stroke-width="3" stroke-linecap="round" stroke-linejoin="round" stroke-miterlimit="10" fill="none"/></g><g><path d="M104.5 535.5C104.5 537.157 103.157 538.5 101.5 538.5 99.8433 538.5 98.5002 537.157 98.5002 535.5 98.5002 533.843 99.8433 532.5 101.5 532.5 103.157 532.5 104.5 533.843 104.5 535.5Z" stroke="#196B24" stroke-linejoin="round" stroke-miterlimit="10" fill="#196B24"/><path d="M126.5 535.5C126.5 537.157 125.157 538.5 123.5 538.5 121.843 538.5 120.5 537.157 120.5 535.5 120.5 533.843 121.843 532.5 123.5 532.5 125.157 532.5 126.5 533.843 126.5 535.5Z" stroke="#196B24" stroke-linejoin="round" stroke-miterlimit="10" fill="#196B24"/><path d="M148.5 535.5C148.5 537.157 147.157 538.5 145.5 538.5 143.843 538.5 142.5 537.157 142.5 535.5 142.5 533.843 143.843 532.5 145.5 532.5 147.157 532.5 148.5 533.843 148.5 535.5Z" stroke="#196B24" stroke-linejoin="round" stroke-miterlimit="10" fill="#196B24"/><path d="M171.5 544.5C171.5 546.157 170.157 547.5 168.5 547.5 166.843 547.5 165.5 546.157 165.5 544.5 165.5 542.843 166.843 541.5 168.5 541.5 170.157 541.5 171.5 542.843 171.5 544.5Z" stroke="#196B24" stroke-linejoin="round" stroke-miterlimit="10" fill="#196B24"/><path d="M193.5 554.5C193.5 556.157 192.157 557.5 190.5 557.5 188.843 557.5 187.5 556.157 187.5 554.5 187.5 552.843 188.843 551.5 190.5 551.5 192.157 551.5 193.5 552.843 193.5 554.5Z" stroke="#196B24" stroke-linejoin="round" stroke-miterlimit="10" fill="#196B24"/><path d="M215.5 561.5C215.5 563.157 214.157 564.5 212.5 564.5 210.843 564.5 209.5 563.157 209.5 561.5 209.5 559.843 210.843 558.5 212.5 558.5 214.157 558.5 215.5 559.843 215.5 561.5Z" stroke="#196B24" stroke-linejoin="round" stroke-miterlimit="10" fill="#196B24"/><path d="M238.5 563.5C238.5 565.157 237.157 566.5 235.5 566.5 233.843 566.5 232.5 565.157 232.5 563.5 232.5 561.843 233.843 560.5 235.5 560.5 237.157 560.5 238.5 561.843 238.5 563.5Z" stroke="#196B24" stroke-linejoin="round" stroke-miterlimit="10" fill="#196B24"/><path d="M260.5 559.5C260.5 561.157 259.157 562.5 257.5 562.5 255.843 562.5 254.5 561.157 254.5 559.5 254.5 557.843 255.843 556.5 257.5 556.5 259.157 556.5 260.5 557.843 260.5 559.5Z" stroke="#196B24" stroke-linejoin="round" stroke-miterlimit="10" fill="#196B24"/><path d="M282.5 548.5C282.5 550.157 281.157 551.5 279.5 551.5 277.843 551.5 276.5 550.157 276.5 548.5 276.5 546.843 277.843 545.5 279.5 545.5 281.157 545.5 282.5 546.843 282.5 548.5Z" stroke="#196B24" stroke-linejoin="round" stroke-miterlimit="10" fill="#196B24"/><path d="M304.5 536.5C304.5 538.157 303.157 539.5 301.5 539.5 299.843 539.5 298.5 538.157 298.5 536.5 298.5 534.843 299.843 533.5 301.5 533.5 303.157 533.5 304.5 534.843 304.5 536.5Z" stroke="#196B24" stroke-linejoin="round" stroke-miterlimit="10" fill="#196B24"/><path d="M327.5 535.5C327.5 537.157 326.157 538.5 324.5 538.5 322.843 538.5 321.5 537.157 321.5 535.5 321.5 533.843 322.843 532.5 324.5 532.5 326.157 532.5 327.5 533.843 327.5 535.5Z" stroke="#196B24" stroke-linejoin="round" stroke-miterlimit="10" fill="#196B24"/><path d="M349.5 535.5C349.5 537.157 348.157 538.5 346.5 538.5 344.843 538.5 343.5 537.157 343.5 535.5 343.5 533.843 344.843 532.5 346.5 532.5 348.157 532.5 349.5 533.843 349.5 535.5Z" stroke="#196B24" stroke-linejoin="round" stroke-miterlimit="10" fill="#196B24"/><path d="M371.5 540.5C371.5 542.157 370.157 543.5 368.5 543.5 366.843 543.5 365.5 542.157 365.5 540.5 365.5 538.843 366.843 537.5 368.5 537.5 370.157 537.5 371.5 538.843 371.5 540.5Z" stroke="#196B24" stroke-linejoin="round" stroke-miterlimit="10" fill="#196B24"/><path d="M394.5 548.5C394.5 550.157 393.157 551.5 391.5 551.5 389.843 551.5 388.5 550.157 388.5 548.5 388.5 546.843 389.843 545.5 391.5 545.5 393.157 545.5 394.5 546.843 394.5 548.5Z" stroke="#196B24" stroke-linejoin="round" stroke-miterlimit="10" fill="#196B24"/><path d="M416.5 555.5C416.5 557.157 415.157 558.5 413.5 558.5 411.843 558.5 410.5 557.157 410.5 555.5 410.5 553.843 411.843 552.5 413.5 552.5 415.157 552.5 416.5 553.843 416.5 555.5Z" stroke="#196B24" stroke-linejoin="round" stroke-miterlimit="10" fill="#196B24"/><path d="M438.5 564.5C438.5 566.157 437.157 567.5 435.5 567.5 433.843 567.5 432.5 566.157 432.5 564.5 432.5 562.843 433.843 561.5 435.5 561.5 437.157 561.5 438.5 562.843 438.5 564.5Z" stroke="#196B24" stroke-linejoin="round" stroke-miterlimit="10" fill="#196B24"/><path d="M460.5 567.5C460.5 569.157 459.157 570.5 457.5 570.5 455.843 570.5 454.5 569.157 454.5 567.5 454.5 565.843 455.843 564.5 457.5 564.5 459.157 564.5 460.5 565.843 460.5 567.5Z" stroke="#196B24" stroke-linejoin="round" stroke-miterlimit="10" fill="#196B24"/><path d="M483.5 564.5C483.5 566.157 482.157 567.5 480.5 567.5 478.843 567.5 477.5 566.157 477.5 564.5 477.5 562.843 478.843 561.5 480.5 561.5 482.157 561.5 483.5 562.843 483.5 564.5Z" stroke="#196B24" stroke-linejoin="round" stroke-miterlimit="10" fill="#196B24"/><path d="M505.5 570.5C505.5 572.157 504.157 573.5 502.5 573.5 500.843 573.5 499.5 572.157 499.5 570.5 499.5 568.843 500.843 567.5 502.5 567.5 504.157 567.5 505.5 568.843 505.5 570.5Z" stroke="#196B24" stroke-linejoin="round" stroke-miterlimit="10" fill="#196B24"/><path d="M527.5 562.5C527.5 564.157 526.157 565.5 524.5 565.5 522.843 565.5 521.5 564.157 521.5 562.5 521.5 560.843 522.843 559.5 524.5 559.5 526.157 559.5 527.5 560.843 527.5 562.5Z" stroke="#196B24" stroke-linejoin="round" stroke-miterlimit="10" fill="#196B24"/></g><g><path d="M101.5 535.5 123.5 535.5 145.5 535.5 168.5 538.5 190.5 549.5 212.5 553.5 235.5 552.5 257.5 546.5 279.5 535.5 301.5 535.5 324.5 535.5 346.5 541.5 368.5 551.5 391.5 558.5 413.5 564.5 435.5 580.5 457.5 598.5 480.5 589.5 502.5 576.5 524.5 567.5" stroke="#0F9ED5" stroke-width="3" stroke-linecap="round" stroke-linejoin="round" stroke-miterlimit="10" fill="none"/></g><g><path d="M104.5 535.5C104.5 537.157 103.157 538.5 101.5 538.5 99.8433 538.5 98.5002 537.157 98.5002 535.5 98.5002 533.843 99.8433 532.5 101.5 532.5 103.157 532.5 104.5 533.843 104.5 535.5Z" stroke="#0F9ED5" stroke-linejoin="round" stroke-miterlimit="10" fill="#0F9ED5"/><path d="M126.5 535.5C126.5 537.157 125.157 538.5 123.5 538.5 121.843 538.5 120.5 537.157 120.5 535.5 120.5 533.843 121.843 532.5 123.5 532.5 125.157 532.5 126.5 533.843 126.5 535.5Z" stroke="#0F9ED5" stroke-linejoin="round" stroke-miterlimit="10" fill="#0F9ED5"/><path d="M148.5 535.5C148.5 537.157 147.157 538.5 145.5 538.5 143.843 538.5 142.5 537.157 142.5 535.5 142.5 533.843 143.843 532.5 145.5 532.5 147.157 532.5 148.5 533.843 148.5 535.5Z" stroke="#0F9ED5" stroke-linejoin="round" stroke-miterlimit="10" fill="#0F9ED5"/><path d="M171.5 538.5C171.5 540.157 170.157 541.5 168.5 541.5 166.843 541.5 165.5 540.157 165.5 538.5 165.5 536.843 166.843 535.5 168.5 535.5 170.157 535.5 171.5 536.843 171.5 538.5Z" stroke="#0F9ED5" stroke-linejoin="round" stroke-miterlimit="10" fill="#0F9ED5"/><path d="M193.5 549.5C193.5 551.157 192.157 552.5 190.5 552.5 188.843 552.5 187.5 551.157 187.5 549.5 187.5 547.843 188.843 546.5 190.5 546.5 192.157 546.5 193.5 547.843 193.5 549.5Z" stroke="#0F9ED5" stroke-linejoin="round" stroke-miterlimit="10" fill="#0F9ED5"/><path d="M215.5 553.5C215.5 555.157 214.157 556.5 212.5 556.5 210.843 556.5 209.5 555.157 209.5 553.5 209.5 551.843 210.843 550.5 212.5 550.5 214.157 550.5 215.5 551.843 215.5 553.5Z" stroke="#0F9ED5" stroke-linejoin="round" stroke-miterlimit="10" fill="#0F9ED5"/><path d="M238.5 552.5C238.5 554.157 237.157 555.5 235.5 555.5 233.843 555.5 232.5 554.157 232.5 552.5 232.5 550.843 233.843 549.5 235.5 549.5 237.157 549.5 238.5 550.843 238.5 552.5Z" stroke="#0F9ED5" stroke-linejoin="round" stroke-miterlimit="10" fill="#0F9ED5"/><path d="M260.5 546.5C260.5 548.157 259.157 549.5 257.5 549.5 255.843 549.5 254.5 548.157 254.5 546.5 254.5 544.843 255.843 543.5 257.5 543.5 259.157 543.5 260.5 544.843 260.5 546.5Z" stroke="#0F9ED5" stroke-linejoin="round" stroke-miterlimit="10" fill="#0F9ED5"/><path d="M282.5 535.5C282.5 537.157 281.157 538.5 279.5 538.5 277.843 538.5 276.5 537.157 276.5 535.5 276.5 533.843 277.843 532.5 279.5 532.5 281.157 532.5 282.5 533.843 282.5 535.5Z" stroke="#0F9ED5" stroke-linejoin="round" stroke-miterlimit="10" fill="#0F9ED5"/><path d="M304.5 535.5C304.5 537.157 303.157 538.5 301.5 538.5 299.843 538.5 298.5 537.157 298.5 535.5 298.5 533.843 299.843 532.5 301.5 532.5 303.157 532.5 304.5 533.843 304.5 535.5Z" stroke="#0F9ED5" stroke-linejoin="round" stroke-miterlimit="10" fill="#0F9ED5"/><path d="M327.5 535.5C327.5 537.157 326.157 538.5 324.5 538.5 322.843 538.5 321.5 537.157 321.5 535.5 321.5 533.843 322.843 532.5 324.5 532.5 326.157 532.5 327.5 533.843 327.5 535.5Z" stroke="#0F9ED5" stroke-linejoin="round" stroke-miterlimit="10" fill="#0F9ED5"/><path d="M349.5 541.5C349.5 543.157 348.157 544.5 346.5 544.5 344.843 544.5 343.5 543.157 343.5 541.5 343.5 539.843 344.843 538.5 346.5 538.5 348.157 538.5 349.5 539.843 349.5 541.5Z" stroke="#0F9ED5" stroke-linejoin="round" stroke-miterlimit="10" fill="#0F9ED5"/><path d="M371.5 551.5C371.5 553.157 370.157 554.5 368.5 554.5 366.843 554.5 365.5 553.157 365.5 551.5 365.5 549.843 366.843 548.5 368.5 548.5 370.157 548.5 371.5 549.843 371.5 551.5Z" stroke="#0F9ED5" stroke-linejoin="round" stroke-miterlimit="10" fill="#0F9ED5"/><path d="M394.5 558.5C394.5 560.157 393.157 561.5 391.5 561.5 389.843 561.5 388.5 560.157 388.5 558.5 388.5 556.843 389.843 555.5 391.5 555.5 393.157 555.5 394.5 556.843 394.5 558.5Z" stroke="#0F9ED5" stroke-linejoin="round" stroke-miterlimit="10" fill="#0F9ED5"/><path d="M416.5 564.5C416.5 566.157 415.157 567.5 413.5 567.5 411.843 567.5 410.5 566.157 410.5 564.5 410.5 562.843 411.843 561.5 413.5 561.5 415.157 561.5 416.5 562.843 416.5 564.5Z" stroke="#0F9ED5" stroke-linejoin="round" stroke-miterlimit="10" fill="#0F9ED5"/><path d="M438.5 580.5C438.5 582.157 437.157 583.5 435.5 583.5 433.843 583.5 432.5 582.157 432.5 580.5 432.5 578.843 433.843 577.5 435.5 577.5 437.157 577.5 438.5 578.843 438.5 580.5Z" stroke="#0F9ED5" stroke-linejoin="round" stroke-miterlimit="10" fill="#0F9ED5"/><path d="M460.5 598.5C460.5 600.157 459.157 601.5 457.5 601.5 455.843 601.5 454.5 600.157 454.5 598.5 454.5 596.843 455.843 595.5 457.5 595.5 459.157 595.5 460.5 596.843 460.5 598.5Z" stroke="#0F9ED5" stroke-linejoin="round" stroke-miterlimit="10" fill="#0F9ED5"/><path d="M483.5 589.5C483.5 591.157 482.157 592.5 480.5 592.5 478.843 592.5 477.5 591.157 477.5 589.5 477.5 587.843 478.843 586.5 480.5 586.5 482.157 586.5 483.5 587.843 483.5 589.5Z" stroke="#0F9ED5" stroke-linejoin="round" stroke-miterlimit="10" fill="#0F9ED5"/><path d="M505.5 576.5C505.5 578.157 504.157 579.5 502.5 579.5 500.843 579.5 499.5 578.157 499.5 576.5 499.5 574.843 500.843 573.5 502.5 573.5 504.157 573.5 505.5 574.843 505.5 576.5Z" stroke="#0F9ED5" stroke-linejoin="round" stroke-miterlimit="10" fill="#0F9ED5"/><path d="M527.5 567.5C527.5 569.157 526.157 570.5 524.5 570.5 522.843 570.5 521.5 569.157 521.5 567.5 521.5 565.843 522.843 564.5 524.5 564.5 526.157 564.5 527.5 565.843 527.5 567.5Z" stroke="#0F9ED5" stroke-linejoin="round" stroke-miterlimit="10" fill="#0F9ED5"/></g><g><path d="M101.5 638.5 123.5 638.5 145.5 640.5 168.5 641.5 190.5 642.5 212.5 644.5 235.5 647.5 257.5 647.5 279.5 649.5 301.5 651.5 324.5 653.5 346.5 656.5 368.5 659.5 391.5 664.5 413.5 668.5 435.5 671.5 457.5 674.5 480.5 678.5 502.5 681.5 524.5 684.5" stroke="#A02B93" stroke-width="3" stroke-linecap="round" stroke-linejoin="round" stroke-miterlimit="10" fill="none"/></g><g><path d="M104.5 638.5C104.5 640.157 103.157 641.5 101.5 641.5 99.8433 641.5 98.5002 640.157 98.5002 638.5 98.5002 636.843 99.8433 635.5 101.5 635.5 103.157 635.5 104.5 636.843 104.5 638.5Z" stroke="#A02B93" stroke-linejoin="round" stroke-miterlimit="10" fill="#A02B93"/><path d="M126.5 638.5C126.5 640.157 125.157 641.5 123.5 641.5 121.843 641.5 120.5 640.157 120.5 638.5 120.5 636.843 121.843 635.5 123.5 635.5 125.157 635.5 126.5 636.843 126.5 638.5Z" stroke="#A02B93" stroke-linejoin="round" stroke-miterlimit="10" fill="#A02B93"/><path d="M148.5 640.5C148.5 642.157 147.157 643.5 145.5 643.5 143.843 643.5 142.5 642.157 142.5 640.5 142.5 638.843 143.843 637.5 145.5 637.5 147.157 637.5 148.5 638.843 148.5 640.5Z" stroke="#A02B93" stroke-linejoin="round" stroke-miterlimit="10" fill="#A02B93"/><path d="M171.5 641.5C171.5 643.157 170.157 644.5 168.5 644.5 166.843 644.5 165.5 643.157 165.5 641.5 165.5 639.843 166.843 638.5 168.5 638.5 170.157 638.5 171.5 639.843 171.5 641.5Z" stroke="#A02B93" stroke-linejoin="round" stroke-miterlimit="10" fill="#A02B93"/><path d="M193.5 642.5C193.5 644.157 192.157 645.5 190.5 645.5 188.843 645.5 187.5 644.157 187.5 642.5 187.5 640.843 188.843 639.5 190.5 639.5 192.157 639.5 193.5 640.843 193.5 642.5Z" stroke="#A02B93" stroke-linejoin="round" stroke-miterlimit="10" fill="#A02B93"/><path d="M215.5 644.5C215.5 646.157 214.157 647.5 212.5 647.5 210.843 647.5 209.5 646.157 209.5 644.5 209.5 642.843 210.843 641.5 212.5 641.5 214.157 641.5 215.5 642.843 215.5 644.5Z" stroke="#A02B93" stroke-linejoin="round" stroke-miterlimit="10" fill="#A02B93"/><path d="M238.5 647.5C238.5 649.157 237.157 650.5 235.5 650.5 233.843 650.5 232.5 649.157 232.5 647.5 232.5 645.843 233.843 644.5 235.5 644.5 237.157 644.5 238.5 645.843 238.5 647.5Z" stroke="#A02B93" stroke-linejoin="round" stroke-miterlimit="10" fill="#A02B93"/><path d="M260.5 647.5C260.5 649.157 259.157 650.5 257.5 650.5 255.843 650.5 254.5 649.157 254.5 647.5 254.5 645.843 255.843 644.5 257.5 644.5 259.157 644.5 260.5 645.843 260.5 647.5Z" stroke="#A02B93" stroke-linejoin="round" stroke-miterlimit="10" fill="#A02B93"/><path d="M282.5 649.5C282.5 651.157 281.157 652.5 279.5 652.5 277.843 652.5 276.5 651.157 276.5 649.5 276.5 647.843 277.843 646.5 279.5 646.5 281.157 646.5 282.5 647.843 282.5 649.5Z" stroke="#A02B93" stroke-linejoin="round" stroke-miterlimit="10" fill="#A02B93"/><path d="M304.5 651.5C304.5 653.157 303.157 654.5 301.5 654.5 299.843 654.5 298.5 653.157 298.5 651.5 298.5 649.843 299.843 648.5 301.5 648.5 303.157 648.5 304.5 649.843 304.5 651.5Z" stroke="#A02B93" stroke-linejoin="round" stroke-miterlimit="10" fill="#A02B93"/><path d="M327.5 653.5C327.5 655.157 326.157 656.5 324.5 656.5 322.843 656.5 321.5 655.157 321.5 653.5 321.5 651.843 322.843 650.5 324.5 650.5 326.157 650.5 327.5 651.843 327.5 653.5Z" stroke="#A02B93" stroke-linejoin="round" stroke-miterlimit="10" fill="#A02B93"/><path d="M349.5 656.5C349.5 658.157 348.157 659.5 346.5 659.5 344.843 659.5 343.5 658.157 343.5 656.5 343.5 654.843 344.843 653.5 346.5 653.5 348.157 653.5 349.5 654.843 349.5 656.5Z" stroke="#A02B93" stroke-linejoin="round" stroke-miterlimit="10" fill="#A02B93"/><path d="M371.5 659.5C371.5 661.157 370.157 662.5 368.5 662.5 366.843 662.5 365.5 661.157 365.5 659.5 365.5 657.843 366.843 656.5 368.5 656.5 370.157 656.5 371.5 657.843 371.5 659.5Z" stroke="#A02B93" stroke-linejoin="round" stroke-miterlimit="10" fill="#A02B93"/><path d="M394.5 664.5C394.5 666.157 393.157 667.5 391.5 667.5 389.843 667.5 388.5 666.157 388.5 664.5 388.5 662.843 389.843 661.5 391.5 661.5 393.157 661.5 394.5 662.843 394.5 664.5Z" stroke="#A02B93" stroke-linejoin="round" stroke-miterlimit="10" fill="#A02B93"/><path d="M416.5 668.5C416.5 670.157 415.157 671.5 413.5 671.5 411.843 671.5 410.5 670.157 410.5 668.5 410.5 666.843 411.843 665.5 413.5 665.5 415.157 665.5 416.5 666.843 416.5 668.5Z" stroke="#A02B93" stroke-linejoin="round" stroke-miterlimit="10" fill="#A02B93"/><path d="M438.5 671.5C438.5 673.157 437.157 674.5 435.5 674.5 433.843 674.5 432.5 673.157 432.5 671.5 432.5 669.843 433.843 668.5 435.5 668.5 437.157 668.5 438.5 669.843 438.5 671.5Z" stroke="#A02B93" stroke-linejoin="round" stroke-miterlimit="10" fill="#A02B93"/><path d="M460.5 674.5C460.5 676.157 459.157 677.5 457.5 677.5 455.843 677.5 454.5 676.157 454.5 674.5 454.5 672.843 455.843 671.5 457.5 671.5 459.157 671.5 460.5 672.843 460.5 674.5Z" stroke="#A02B93" stroke-linejoin="round" stroke-miterlimit="10" fill="#A02B93"/><path d="M483.5 678.5C483.5 680.157 482.157 681.5 480.5 681.5 478.843 681.5 477.5 680.157 477.5 678.5 477.5 676.843 478.843 675.5 480.5 675.5 482.157 675.5 483.5 676.843 483.5 678.5Z" stroke="#A02B93" stroke-linejoin="round" stroke-miterlimit="10" fill="#A02B93"/><path d="M505.5 681.5C505.5 683.157 504.157 684.5 502.5 684.5 500.843 684.5 499.5 683.157 499.5 681.5 499.5 679.843 500.843 678.5 502.5 678.5 504.157 678.5 505.5 679.843 505.5 681.5Z" stroke="#A02B93" stroke-linejoin="round" stroke-miterlimit="10" fill="#A02B93"/><path d="M527.5 684.5C527.5 686.157 526.157 687.5 524.5 687.5 522.843 687.5 521.5 686.157 521.5 684.5 521.5 682.843 522.843 681.5 524.5 681.5 526.157 681.5 527.5 682.843 527.5 684.5Z" stroke="#A02B93" stroke-linejoin="round" stroke-miterlimit="10" fill="#A02B93"/></g><g><path d="M101.5 635.5 123.5 634.5 145.5 634.5 168.5 635.5 190.5 637.5 212.5 638.5 235.5 639.5 257.5 642.5 279.5 645.5 301.5 647.5 324.5 650.5 346.5 653.5 368.5 658.5 391.5 664.5 413.5 668.5 435.5 672.5 457.5 676.5 480.5 680.5 502.5 682.5 524.5 686.5" stroke="#4EA72E" stroke-width="3" stroke-linecap="round" stroke-linejoin="round" stroke-miterlimit="10" fill="none"/></g><g><path d="M104.5 635.5C104.5 637.157 103.157 638.5 101.5 638.5 99.8433 638.5 98.5002 637.157 98.5002 635.5 98.5002 633.843 99.8433 632.5 101.5 632.5 103.157 632.5 104.5 633.843 104.5 635.5Z" stroke="#4EA72E" stroke-linejoin="round" stroke-miterlimit="10" fill="#4EA72E"/><path d="M126.5 634.5C126.5 636.157 125.157 637.5 123.5 637.5 121.843 637.5 120.5 636.157 120.5 634.5 120.5 632.843 121.843 631.5 123.5 631.5 125.157 631.5 126.5 632.843 126.5 634.5Z" stroke="#4EA72E" stroke-linejoin="round" stroke-miterlimit="10" fill="#4EA72E"/><path d="M148.5 634.5C148.5 636.157 147.157 637.5 145.5 637.5 143.843 637.5 142.5 636.157 142.5 634.5 142.5 632.843 143.843 631.5 145.5 631.5 147.157 631.5 148.5 632.843 148.5 634.5Z" stroke="#4EA72E" stroke-linejoin="round" stroke-miterlimit="10" fill="#4EA72E"/><path d="M171.5 635.5C171.5 637.157 170.157 638.5 168.5 638.5 166.843 638.5 165.5 637.157 165.5 635.5 165.5 633.843 166.843 632.5 168.5 632.5 170.157 632.5 171.5 633.843 171.5 635.5Z" stroke="#4EA72E" stroke-linejoin="round" stroke-miterlimit="10" fill="#4EA72E"/><path d="M193.5 637.5C193.5 639.157 192.157 640.5 190.5 640.5 188.843 640.5 187.5 639.157 187.5 637.5 187.5 635.843 188.843 634.5 190.5 634.5 192.157 634.5 193.5 635.843 193.5 637.5Z" stroke="#4EA72E" stroke-linejoin="round" stroke-miterlimit="10" fill="#4EA72E"/><path d="M215.5 638.5C215.5 640.157 214.157 641.5 212.5 641.5 210.843 641.5 209.5 640.157 209.5 638.5 209.5 636.843 210.843 635.5 212.5 635.5 214.157 635.5 215.5 636.843 215.5 638.5Z" stroke="#4EA72E" stroke-linejoin="round" stroke-miterlimit="10" fill="#4EA72E"/><path d="M238.5 639.5C238.5 641.157 237.157 642.5 235.5 642.5 233.843 642.5 232.5 641.157 232.5 639.5 232.5 637.843 233.843 636.5 235.5 636.5 237.157 636.5 238.5 637.843 238.5 639.5Z" stroke="#4EA72E" stroke-linejoin="round" stroke-miterlimit="10" fill="#4EA72E"/><path d="M260.5 642.5C260.5 644.157 259.157 645.5 257.5 645.5 255.843 645.5 254.5 644.157 254.5 642.5 254.5 640.843 255.843 639.5 257.5 639.5 259.157 639.5 260.5 640.843 260.5 642.5Z" stroke="#4EA72E" stroke-linejoin="round" stroke-miterlimit="10" fill="#4EA72E"/><path d="M282.5 645.5C282.5 647.157 281.157 648.5 279.5 648.5 277.843 648.5 276.5 647.157 276.5 645.5 276.5 643.843 277.843 642.5 279.5 642.5 281.157 642.5 282.5 643.843 282.5 645.5Z" stroke="#4EA72E" stroke-linejoin="round" stroke-miterlimit="10" fill="#4EA72E"/><path d="M304.5 647.5C304.5 649.157 303.157 650.5 301.5 650.5 299.843 650.5 298.5 649.157 298.5 647.5 298.5 645.843 299.843 644.5 301.5 644.5 303.157 644.5 304.5 645.843 304.5 647.5Z" stroke="#4EA72E" stroke-linejoin="round" stroke-miterlimit="10" fill="#4EA72E"/><path d="M327.5 650.5C327.5 652.157 326.157 653.5 324.5 653.5 322.843 653.5 321.5 652.157 321.5 650.5 321.5 648.843 322.843 647.5 324.5 647.5 326.157 647.5 327.5 648.843 327.5 650.5Z" stroke="#4EA72E" stroke-linejoin="round" stroke-miterlimit="10" fill="#4EA72E"/><path d="M349.5 653.5C349.5 655.157 348.157 656.5 346.5 656.5 344.843 656.5 343.5 655.157 343.5 653.5 343.5 651.843 344.843 650.5 346.5 650.5 348.157 650.5 349.5 651.843 349.5 653.5Z" stroke="#4EA72E" stroke-linejoin="round" stroke-miterlimit="10" fill="#4EA72E"/><path d="M371.5 658.5C371.5 660.157 370.157 661.5 368.5 661.5 366.843 661.5 365.5 660.157 365.5 658.5 365.5 656.843 366.843 655.5 368.5 655.5 370.157 655.5 371.5 656.843 371.5 658.5Z" stroke="#4EA72E" stroke-linejoin="round" stroke-miterlimit="10" fill="#4EA72E"/><path d="M394.5 664.5C394.5 666.157 393.157 667.5 391.5 667.5 389.843 667.5 388.5 666.157 388.5 664.5 388.5 662.843 389.843 661.5 391.5 661.5 393.157 661.5 394.5 662.843 394.5 664.5Z" stroke="#4EA72E" stroke-linejoin="round" stroke-miterlimit="10" fill="#4EA72E"/><path d="M416.5 668.5C416.5 670.157 415.157 671.5 413.5 671.5 411.843 671.5 410.5 670.157 410.5 668.5 410.5 666.843 411.843 665.5 413.5 665.5 415.157 665.5 416.5 666.843 416.5 668.5Z" stroke="#4EA72E" stroke-linejoin="round" stroke-miterlimit="10" fill="#4EA72E"/><path d="M438.5 672.5C438.5 674.157 437.157 675.5 435.5 675.5 433.843 675.5 432.5 674.157 432.5 672.5 432.5 670.843 433.843 669.5 435.5 669.5 437.157 669.5 438.5 670.843 438.5 672.5Z" stroke="#4EA72E" stroke-linejoin="round" stroke-miterlimit="10" fill="#4EA72E"/><path d="M460.5 676.5C460.5 678.157 459.157 679.5 457.5 679.5 455.843 679.5 454.5 678.157 454.5 676.5 454.5 674.843 455.843 673.5 457.5 673.5 459.157 673.5 460.5 674.843 460.5 676.5Z" stroke="#4EA72E" stroke-linejoin="round" stroke-miterlimit="10" fill="#4EA72E"/><path d="M483.5 680.5C483.5 682.157 482.157 683.5 480.5 683.5 478.843 683.5 477.5 682.157 477.5 680.5 477.5 678.843 478.843 677.5 480.5 677.5 482.157 677.5 483.5 678.843 483.5 680.5Z" stroke="#4EA72E" stroke-linejoin="round" stroke-miterlimit="10" fill="#4EA72E"/><path d="M505.5 682.5C505.5 684.157 504.157 685.5 502.5 685.5 500.843 685.5 499.5 684.157 499.5 682.5 499.5 680.843 500.843 679.5 502.5 679.5 504.157 679.5 505.5 680.843 505.5 682.5Z" stroke="#4EA72E" stroke-linejoin="round" stroke-miterlimit="10" fill="#4EA72E"/><path d="M527.5 686.5C527.5 688.157 526.157 689.5 524.5 689.5 522.843 689.5 521.5 688.157 521.5 686.5 521.5 684.843 522.843 683.5 524.5 683.5 526.157 683.5 527.5 684.843 527.5 686.5Z" stroke="#4EA72E" stroke-linejoin="round" stroke-miterlimit="10" fill="#4EA72E"/></g><g><path d="M101.5 639.5 123.5 639.5 145.5 640.5 168.5 642.5 190.5 644.5 212.5 646.5 235.5 649.5 257.5 652.5 279.5 655.5 301.5 658.5 324.5 662.5 346.5 665.5 368.5 669.5 391.5 671.5 413.5 674.5 435.5 673.5 457.5 672.5 480.5 672.5 502.5 675.5 524.5 678.5" stroke="#0D3A4E" stroke-width="3" stroke-linecap="round" stroke-linejoin="round" stroke-miterlimit="10" fill="none"/></g><g><path d="M104.5 639.5C104.5 641.157 103.157 642.5 101.5 642.5 99.8433 642.5 98.5002 641.157 98.5002 639.5 98.5002 637.843 99.8433 636.5 101.5 636.5 103.157 636.5 104.5 637.843 104.5 639.5Z" stroke="#0D3A4E" stroke-linejoin="round" stroke-miterlimit="10" fill="#0D3A4E"/><path d="M126.5 639.5C126.5 641.157 125.157 642.5 123.5 642.5 121.843 642.5 120.5 641.157 120.5 639.5 120.5 637.843 121.843 636.5 123.5 636.5 125.157 636.5 126.5 637.843 126.5 639.5Z" stroke="#0D3A4E" stroke-linejoin="round" stroke-miterlimit="10" fill="#0D3A4E"/><path d="M148.5 640.5C148.5 642.157 147.157 643.5 145.5 643.5 143.843 643.5 142.5 642.157 142.5 640.5 142.5 638.843 143.843 637.5 145.5 637.5 147.157 637.5 148.5 638.843 148.5 640.5Z" stroke="#0D3A4E" stroke-linejoin="round" stroke-miterlimit="10" fill="#0D3A4E"/><path d="M171.5 642.5C171.5 644.157 170.157 645.5 168.5 645.5 166.843 645.5 165.5 644.157 165.5 642.5 165.5 640.843 166.843 639.5 168.5 639.5 170.157 639.5 171.5 640.843 171.5 642.5Z" stroke="#0D3A4E" stroke-linejoin="round" stroke-miterlimit="10" fill="#0D3A4E"/><path d="M193.5 644.5C193.5 646.157 192.157 647.5 190.5 647.5 188.843 647.5 187.5 646.157 187.5 644.5 187.5 642.843 188.843 641.5 190.5 641.5 192.157 641.5 193.5 642.843 193.5 644.5Z" stroke="#0D3A4E" stroke-linejoin="round" stroke-miterlimit="10" fill="#0D3A4E"/><path d="M215.5 646.5C215.5 648.157 214.157 649.5 212.5 649.5 210.843 649.5 209.5 648.157 209.5 646.5 209.5 644.843 210.843 643.5 212.5 643.5 214.157 643.5 215.5 644.843 215.5 646.5Z" stroke="#0D3A4E" stroke-linejoin="round" stroke-miterlimit="10" fill="#0D3A4E"/><path d="M238.5 649.5C238.5 651.157 237.157 652.5 235.5 652.5 233.843 652.5 232.5 651.157 232.5 649.5 232.5 647.843 233.843 646.5 235.5 646.5 237.157 646.5 238.5 647.843 238.5 649.5Z" stroke="#0D3A4E" stroke-linejoin="round" stroke-miterlimit="10" fill="#0D3A4E"/><path d="M260.5 652.5C260.5 654.157 259.157 655.5 257.5 655.5 255.843 655.5 254.5 654.157 254.5 652.5 254.5 650.843 255.843 649.5 257.5 649.5 259.157 649.5 260.5 650.843 260.5 652.5Z" stroke="#0D3A4E" stroke-linejoin="round" stroke-miterlimit="10" fill="#0D3A4E"/><path d="M282.5 655.5C282.5 657.157 281.157 658.5 279.5 658.5 277.843 658.5 276.5 657.157 276.5 655.5 276.5 653.843 277.843 652.5 279.5 652.5 281.157 652.5 282.5 653.843 282.5 655.5Z" stroke="#0D3A4E" stroke-linejoin="round" stroke-miterlimit="10" fill="#0D3A4E"/><path d="M304.5 658.5C304.5 660.157 303.157 661.5 301.5 661.5 299.843 661.5 298.5 660.157 298.5 658.5 298.5 656.843 299.843 655.5 301.5 655.5 303.157 655.5 304.5 656.843 304.5 658.5Z" stroke="#0D3A4E" stroke-linejoin="round" stroke-miterlimit="10" fill="#0D3A4E"/><path d="M327.5 662.5C327.5 664.157 326.157 665.5 324.5 665.5 322.843 665.5 321.5 664.157 321.5 662.5 321.5 660.843 322.843 659.5 324.5 659.5 326.157 659.5 327.5 660.843 327.5 662.5Z" stroke="#0D3A4E" stroke-linejoin="round" stroke-miterlimit="10" fill="#0D3A4E"/><path d="M349.5 665.5C349.5 667.157 348.157 668.5 346.5 668.5 344.843 668.5 343.5 667.157 343.5 665.5 343.5 663.843 344.843 662.5 346.5 662.5 348.157 662.5 349.5 663.843 349.5 665.5Z" stroke="#0D3A4E" stroke-linejoin="round" stroke-miterlimit="10" fill="#0D3A4E"/><path d="M371.5 669.5C371.5 671.157 370.157 672.5 368.5 672.5 366.843 672.5 365.5 671.157 365.5 669.5 365.5 667.843 366.843 666.5 368.5 666.5 370.157 666.5 371.5 667.843 371.5 669.5Z" stroke="#0D3A4E" stroke-linejoin="round" stroke-miterlimit="10" fill="#0D3A4E"/><path d="M394.5 671.5C394.5 673.157 393.157 674.5 391.5 674.5 389.843 674.5 388.5 673.157 388.5 671.5 388.5 669.843 389.843 668.5 391.5 668.5 393.157 668.5 394.5 669.843 394.5 671.5Z" stroke="#0D3A4E" stroke-linejoin="round" stroke-miterlimit="10" fill="#0D3A4E"/><path d="M416.5 674.5C416.5 676.157 415.157 677.5 413.5 677.5 411.843 677.5 410.5 676.157 410.5 674.5 410.5 672.843 411.843 671.5 413.5 671.5 415.157 671.5 416.5 672.843 416.5 674.5Z" stroke="#0D3A4E" stroke-linejoin="round" stroke-miterlimit="10" fill="#0D3A4E"/><path d="M438.5 673.5C438.5 675.157 437.157 676.5 435.5 676.5 433.843 676.5 432.5 675.157 432.5 673.5 432.5 671.843 433.843 670.5 435.5 670.5 437.157 670.5 438.5 671.843 438.5 673.5Z" stroke="#0D3A4E" stroke-linejoin="round" stroke-miterlimit="10" fill="#0D3A4E"/><path d="M460.5 672.5C460.5 674.157 459.157 675.5 457.5 675.5 455.843 675.5 454.5 674.157 454.5 672.5 454.5 670.843 455.843 669.5 457.5 669.5 459.157 669.5 460.5 670.843 460.5 672.5Z" stroke="#0D3A4E" stroke-linejoin="round" stroke-miterlimit="10" fill="#0D3A4E"/><path d="M483.5 672.5C483.5 674.157 482.157 675.5 480.5 675.5 478.843 675.5 477.5 674.157 477.5 672.5 477.5 670.843 478.843 669.5 480.5 669.5 482.157 669.5 483.5 670.843 483.5 672.5Z" stroke="#0D3A4E" stroke-linejoin="round" stroke-miterlimit="10" fill="#0D3A4E"/><path d="M505.5 675.5C505.5 677.157 504.157 678.5 502.5 678.5 500.843 678.5 499.5 677.157 499.5 675.5 499.5 673.843 500.843 672.5 502.5 672.5 504.157 672.5 505.5 673.843 505.5 675.5Z" stroke="#0D3A4E" stroke-linejoin="round" stroke-miterlimit="10" fill="#0D3A4E"/><path d="M527.5 678.5C527.5 680.157 526.157 681.5 524.5 681.5 522.843 681.5 521.5 680.157 521.5 678.5 521.5 676.843 522.843 675.5 524.5 675.5 526.157 675.5 527.5 676.843 527.5 678.5Z" stroke="#0D3A4E" stroke-linejoin="round" stroke-miterlimit="10" fill="#0D3A4E"/></g><g><text fill="#595959" font-family="Aptos Narrow,Aptos Narrow_MSFontService,Arial" font-weight="400" font-stretch="semi-condensed" font-size="12" transform="translate(73.1401 702)">2</text></g><g><text fill="#595959" font-family="Aptos Narrow,Aptos Narrow_MSFontService,Arial" font-weight="400" font-stretch="semi-condensed" font-size="12" transform="translate(63.9401 686)">2.5</text></g><g><text fill="#595959" font-family="Aptos Narrow,Aptos Narrow_MSFontService,Arial" font-weight="400" font-stretch="semi-condensed" font-size="12" transform="translate(73.1401 669)">3</text></g><g><text fill="#595959" font-family="Aptos Narrow,Aptos Narrow_MSFontService,Arial" font-weight="400" font-stretch="semi-condensed" font-size="12" transform="translate(63.9401 653)">3.5</text></g><g><text fill="#595959" font-family="Aptos Narrow,Aptos Narrow_MSFontService,Arial" font-weight="400" font-stretch="semi-condensed" font-size="12" transform="translate(73.1401 637)">4</text></g><g><text fill="#595959" font-family="Aptos Narrow,Aptos Narrow_MSFontService,Arial" font-weight="400" font-stretch="semi-condensed" font-size="12" transform="translate(63.9401 620)">4.5</text></g><g><text fill="#595959" font-family="Aptos Narrow,Aptos Narrow_MSFontService,Arial" font-weight="400" font-stretch="semi-condensed" font-size="12" transform="translate(73.1401 604)">5</text></g><g><text fill="#595959" font-family="Aptos Narrow,Aptos Narrow_MSFontService,Arial" font-weight="400" font-stretch="semi-condensed" font-size="12" transform="translate(63.9401 588)">5.5</text></g><g><text fill="#595959" font-family="Aptos Narrow,Aptos Narrow_MSFontService,Arial" font-weight="400" font-stretch="semi-condensed" font-size="12" transform="translate(73.1401 571)">6</text></g><g><text fill="#595959" font-family="Aptos Narrow,Aptos Narrow_MSFontService,Arial" font-weight="400" font-stretch="semi-condensed" font-size="12" transform="translate(63.9401 555)">6.5</text></g><g><text fill="#595959" font-family="Aptos Narrow,Aptos Narrow_MSFontService,Arial" font-weight="400" font-stretch="semi-condensed" font-size="12" transform="translate(73.1401 539)">7</text></g><g><text fill="#595959" font-family="Aptos Narrow,Aptos Narrow_MSFontService,Arial" font-weight="400" font-stretch="semi-condensed" font-size="12" transform="translate(92.3173 717)">293</text></g><g><text fill="#595959" font-family="Aptos Narrow,Aptos Narrow_MSFontService,Arial" font-weight="400" font-stretch="semi-condensed" font-size="12" transform="translate(114.594 717)">303</text></g><g><text fill="#595959" font-family="Aptos Narrow,Aptos Narrow_MSFontService,Arial" font-weight="400" font-stretch="semi-condensed" font-size="12" transform="translate(136.871 717)">313</text></g><g><text fill="#595959" font-family="Aptos Narrow,Aptos Narrow_MSFontService,Arial" font-weight="400" font-stretch="semi-condensed" font-size="12" transform="translate(159.147 717)">323</text></g><g><text fill="#595959" font-family="Aptos Narrow,Aptos Narrow_MSFontService,Arial" font-weight="400" font-stretch="semi-condensed" font-size="12" transform="translate(181.424 717)">333</text></g><g><text fill="#595959" font-family="Aptos Narrow,Aptos Narrow_MSFontService,Arial" font-weight="400" font-stretch="semi-condensed" font-size="12" transform="translate(203.701 717)">343</text></g><g><text fill="#595959" font-family="Aptos Narrow,Aptos Narrow_MSFontService,Arial" font-weight="400" font-stretch="semi-condensed" font-size="12" transform="translate(225.978 717)">353</text></g><g><text fill="#595959" font-family="Aptos Narrow,Aptos Narrow_MSFontService,Arial" font-weight="400" font-stretch="semi-condensed" font-size="12" transform="translate(248.254 717)">363</text></g><g><text fill="#595959" font-family="Aptos Narrow,Aptos Narrow_MSFontService,Arial" font-weight="400" font-stretch="semi-condensed" font-size="12" transform="translate(270.531 717)">373</text></g><g><text fill="#595959" font-family="Aptos Narrow,Aptos Narrow_MSFontService,Arial" font-weight="400" font-stretch="semi-condensed" font-size="12" transform="translate(292.808 717)">383</text></g><g><text fill="#595959" font-family="Aptos Narrow,Aptos Narrow_MSFontService,Arial" font-weight="400" font-stretch="semi-condensed" font-size="12" transform="translate(315.084 717)">393</text></g><g><text fill="#595959" font-family="Aptos Narrow,Aptos Narrow_MSFontService,Arial" font-weight="400" font-stretch="semi-condensed" font-size="12" transform="translate(337.361 717)">403</text></g><g><text fill="#595959" font-family="Aptos Narrow,Aptos Narrow_MSFontService,Arial" font-weight="400" font-stretch="semi-condensed" font-size="12" transform="translate(359.638 717)">413</text></g><g><text fill="#595959" font-family="Aptos Narrow,Aptos Narrow_MSFontService,Arial" font-weight="400" font-stretch="semi-condensed" font-size="12" transform="translate(381.915 717)">423</text></g><g><text fill="#595959" font-family="Aptos Narrow,Aptos Narrow_MSFontService,Arial" font-weight="400" font-stretch="semi-condensed" font-size="12" transform="translate(404.191 717)">433</text></g><g><text fill="#595959" font-family="Aptos Narrow,Aptos Narrow_MSFontService,Arial" font-weight="400" font-stretch="semi-condensed" font-size="12" transform="translate(426.468 717)">443</text></g><g><text fill="#595959" font-family="Aptos Narrow,Aptos Narrow_MSFontService,Arial" font-weight="400" font-stretch="semi-condensed" font-size="12" transform="translate(448.745 717)">453</text></g><g><text fill="#595959" font-family="Aptos Narrow,Aptos Narrow_MSFontService,Arial" font-weight="400" font-stretch="semi-condensed" font-size="12" transform="translate(471.022 717)">463</text></g><g><text fill="#595959" font-family="Aptos Narrow,Aptos Narrow_MSFontService,Arial" font-weight="400" font-stretch="semi-condensed" font-size="12" transform="translate(493.298 717)">473</text></g><g><text fill="#595959" font-family="Aptos Narrow,Aptos Narrow_MSFontService,Arial" font-weight="400" font-stretch="semi-condensed" font-size="12" transform="translate(515.575 717)">483</text></g><g><text fill="#595959" font-family="Aptos Narrow,Aptos Narrow_MSFontService,Arial" font-weight="400" font-stretch="semi-condensed" font-size="13" transform="matrix(6.12323e-17 -1 1 6.12323e-17 56.6667 627)">lg R</text></g><g><text fill="#595959" font-family="Aptos Narrow,Aptos Narrow_MSFontService,Arial" font-weight="400" font-stretch="semi-condensed" font-size="13" transform="translate(272.583 738)">Temperature, K</text></g><g><path d="M122.5 769.5 147.5 769.5" stroke="#156082" stroke-width="3" stroke-linecap="round" stroke-linejoin="round" stroke-miterlimit="10" fill="none" fill-rule="evenodd"/></g><g><path d="M138 770C138 771.657 136.657 773 135 773 133.343 773 132 771.657 132 770 132 768.343 133.343 767 135 767 136.657 767 138 768.343 138 770Z" stroke="#156082" stroke-linejoin="round" stroke-miterlimit="10" fill="#156082"/></g><g><text fill="#595959" font-family="Aptos Narrow,Aptos Narrow_MSFontService,Arial" font-weight="400" font-stretch="semi-condensed" font-size="12" transform="translate(150.329 772)">lg R -300C</text></g><g><path d="M207.5 769.5 233.5 769.5" stroke="#E97132" stroke-width="3" stroke-linecap="round" stroke-linejoin="round" stroke-miterlimit="10" fill="none" fill-rule="evenodd"/></g><g><path d="M224 770C224 771.657 222.657 773 221 773 219.343 773 218 771.657 218 770 218 768.343 219.343 767 221 767 222.657 767 224 768.343 224 770Z" stroke="#E97132" stroke-linejoin="round" stroke-miterlimit="10" fill="#E97132"/></g><g><text fill="#595959" font-family="Aptos Narrow,Aptos Narrow_MSFontService,Arial" font-weight="400" font-stretch="semi-condensed" font-size="12" transform="translate(235.789 772)">lg R - 400C</text></g><g><path d="M292.5 769.5 318.5 769.5" stroke="#196B24" stroke-width="3" stroke-linecap="round" stroke-linejoin="round" stroke-miterlimit="10" fill="none" fill-rule="evenodd"/></g><g><path d="M309 770C309 771.657 307.657 773 306 773 304.343 773 303 771.657 303 770 303 768.343 304.343 767 306 767 307.657 767 309 768.343 309 770Z" stroke="#196B24" stroke-linejoin="round" stroke-miterlimit="10" fill="#196B24"/></g><g><text fill="#595959" font-family="Aptos Narrow,Aptos Narrow_MSFontService,Arial" font-weight="400" font-stretch="semi-condensed" font-size="12" transform="translate(321.25 772)">lg R  - 500C</text></g><g><path d="M378.5 769.5 404.5 769.5" stroke="#0F9ED5" stroke-width="3" stroke-linecap="round" stroke-linejoin="round" stroke-miterlimit="10" fill="none" fill-rule="evenodd"/></g><g><path d="M395 770C395 771.657 393.657 773 392 773 390.343 773 389 771.657 389 770 389 768.343 390.343 767 392 767 393.657 767 395 768.343 395 770Z" stroke="#0F9ED5" stroke-linejoin="round" stroke-miterlimit="10" fill="#0F9ED5"/></g><g><text fill="#595959" font-family="Aptos Narrow,Aptos Narrow_MSFontService,Arial" font-weight="400" font-stretch="semi-condensed" font-size="12" transform="translate(406.71 772)">lg R  -600C</text></g><g><path d="M122.5 791.5 147.5 791.5" stroke="#A02B93" stroke-width="3" stroke-linecap="round" stroke-linejoin="round" stroke-miterlimit="10" fill="none" fill-rule="evenodd"/></g><g><path d="M138 792C138 793.657 136.657 795 135 795 133.343 795 132 793.657 132 792 132 790.343 133.343 789 135 789 136.657 789 138 790.343 138 792Z" stroke="#A02B93" stroke-linejoin="round" stroke-miterlimit="10" fill="#A02B93"/></g><g><text fill="#595959" font-family="Aptos Narrow,Aptos Narrow_MSFontService,Arial" font-weight="400" font-stretch="semi-condensed" font-size="12" transform="translate(150.329 795)">lg R - 700C</text></g><g><path d="M207.5 791.5 233.5 791.5" stroke="#4EA72E" stroke-width="3" stroke-linecap="round" stroke-linejoin="round" stroke-miterlimit="10" fill="none" fill-rule="evenodd"/></g><g><path d="M224 792C224 793.657 222.657 795 221 795 219.343 795 218 793.657 218 792 218 790.343 219.343 789 221 789 222.657 789 224 790.343 224 792Z" stroke="#4EA72E" stroke-linejoin="round" stroke-miterlimit="10" fill="#4EA72E"/></g><g><text fill="#595959" font-family="Aptos Narrow,Aptos Narrow_MSFontService,Arial" font-weight="400" font-stretch="semi-condensed" font-size="12" transform="translate(235.789 795)">lg R - 800C</text></g><g><path d="M292.5 791.5 318.5 791.5" stroke="#0D3A4E" stroke-width="3" stroke-linecap="round" stroke-linejoin="round" stroke-miterlimit="10" fill="none" fill-rule="evenodd"/></g><g><path d="M309 792C309 793.657 307.657 795 306 795 304.343 795 303 793.657 303 792 303 790.343 304.343 789 306 789 307.657 789 309 790.343 309 792Z" stroke="#0D3A4E" stroke-linejoin="round" stroke-miterlimit="10" fill="#0D3A4E"/></g><g><text fill="#595959" font-family="Aptos Narrow,Aptos Narrow_MSFontService,Arial" font-weight="400" font-stretch="semi-condensed" font-size="12" transform="translate(321.25 795)">lg R - 900C</text></g><rect x="27.5001" y="521.5" width="523" height="288" stroke="#D9D9D9" stroke-linejoin="round" stroke-miterlimit="10" fill="none"/></g></svg>